<?xml version="1.0" encoding="UTF-8"?>
<svg width="46.238" height="28.457" version="1.1" xmlns="http://www.w3.org/2000/svg" xmlns:cc="http://creativecommons.org/ns#" xmlns:dc="http://purl.org/dc/elements/1.1/" xmlns:rdf="http://www.w3.org/1999/02/22-rdf-syntax-ns#">
 <metadata>
  <rdf:RDF>
   <cc:Work rdf:about="">
    <dc:format>image/svg+xml</dc:format>
    <dc:type rdf:resource="http://purl.org/dc/dcmitype/StillImage"/>
    <dc:title/>
   </cc:Work>
  </rdf:RDF>
 </metadata>
 <g transform="translate(-92.996 -774.78)" fill="#357491">
  <path d="m108.76 801.95h22.175c0.14625 0 0.3 0 0.445 0.0162v-0.0162c3.6225 0 6.57-2.9462 6.57-6.57 0-3.6212-2.9475-6.5688-6.57-6.5688-0.51125 0-1.045 0.0675-1.585 0.2-0.17625 0.045-0.36125 0.0125-0.5125-0.0875-0.14875-0.1-0.25125-0.25875-0.27875-0.4375-0.735-4.675-4.7012-8.0688-9.4312-8.0688-5.27 0-9.56 4.2888-9.56 9.56 0 0.26 0.0175 0.515 0.0387 0.76875 0.0175 0.19125-0.0537 0.38125-0.1925 0.515-0.13625 0.135-0.3275 0.19875-0.52 0.18-0.19-0.0213-0.38375-0.0337-0.57875-0.0337-2.9075 0-5.2712 2.365-5.2712 5.2712s2.3638 5.2712 5.2712 5.2712m-0.0362-11.832v-0.14c0-5.9812 4.865-10.85 10.849-10.85 5.145 0 9.49 3.5338 10.581 8.4962 0.4125-0.0688 0.825-0.1025 1.2262-0.1025 4.3325 0 7.8588 3.525 7.8588 7.8588s-3.5262 7.8588-7.8612 7.8588h-22.618c-3.6188 0-6.5625-2.9425-6.5625-6.56 0-3.6062 2.925-6.5425 6.5262-6.5612"/>
  <path d="m100.86 783.18c0.4025 0 0.8125 0.0337 1.2275 0.10125 1.09-4.9625 5.4375-8.495 10.581-8.495 2.2388 0 4.39 0.67625 6.2162 1.9588 0.2925 0.20375 0.36375 0.605 0.15875 0.89625-0.205 0.2925-0.605 0.3625-0.89875 0.15875-1.6088-1.1275-3.5038-1.725-5.4762-1.725-4.7312 0-8.6988 3.3938-9.4312 8.0688-0.0287 0.17875-0.12875 0.3375-0.28 0.4375s-0.3375 0.13125-0.5125 0.0888c-0.5375-0.1325-1.07-0.2-1.585-0.2-3.6225 0-6.57 2.9475-6.57 6.5688 0 3.3788 2.5325 6.1875 5.8862 6.5338 0.35375 0.0362 0.6125 0.35375 0.57625 0.7075-0.0337 0.3325-0.315 0.57875-0.6425 0.57875-0.0212 0-0.0437-1e-3 -0.065-2e-3 -4.0162-0.415-7.0438-3.775-7.0438-7.8175 0-4.3338 3.525-7.8588 7.8588-7.8588"/>
 </g>
</svg>
