<?xml version="1.0" encoding="UTF-8"?>
<svg width="54.074" height="35.27" version="1.1" xmlns="http://www.w3.org/2000/svg" xmlns:cc="http://creativecommons.org/ns#" xmlns:dc="http://purl.org/dc/elements/1.1/" xmlns:rdf="http://www.w3.org/1999/02/22-rdf-syntax-ns#">
 <metadata>
  <rdf:RDF>
   <cc:Work rdf:about="">
    <dc:format>image/svg+xml</dc:format>
    <dc:type rdf:resource="http://purl.org/dc/dcmitype/StillImage"/>
    <dc:title/>
   </cc:Work>
  </rdf:RDF>
 </metadata>
 <g transform="translate(-96.636 -850.56)" fill="#357491">
  <path d="m119.34 884.5h22.826c0.1525 0 0.31 0 0.45875 0.0162v-0.0162c3.7275 0 6.7612-3.0325 6.7612-6.7612s-3.0338-6.7612-6.7612-6.7612c-0.53 0-1.0775 0.0688-1.6312 0.205-0.18 0.045-0.3725 0.0125-0.5275-0.0912-0.155-0.10375-0.26-0.265-0.28875-0.44875-0.755-4.8138-4.8375-8.305-9.7075-8.305-5.4262 0-9.84 4.4138-9.84 9.84 0 0.2675 0.0188 0.53 0.04 0.79125 0.0163 0.1975-0.0562 0.39125-0.1975 0.52875-0.1425 0.14-0.33875 0.20625-0.53375 0.185-0.1975-0.02-0.39625-0.0337-0.59875-0.0337-2.9912 0-5.425 2.4338-5.425 5.425 0 2.9925 2.4338 5.4262 5.425 5.4262m-0.0362-12.179c-1e-3 -0.0475-1e-3 -0.0962-1e-3 -0.14375 0-6.1588 5.01-11.168 11.168-11.168 5.295 0 9.77 3.6362 10.891 8.7438 0.42625-0.07 0.84875-0.10375 1.2638-0.10375 4.46 0 8.0888 3.6288 8.0888 8.0888s-3.6288 8.0888-8.0925 8.0888h-23.281c-3.7238 0-6.7525-3.0288-6.7525-6.7538 0-3.71 3.0088-6.7325 6.7162-6.7525"/>
  <path d="m109.05 882.32c-4.1556-0.97666-7.7576-3.5371-10.005-7.1661-4.6764-7.5498-2.3297-17.498 5.2198-22.175 7.5498-4.6764 17.474-2.352 22.151 5.1977 0.67104 1.0834-0.84778 1.5759-1.3128 0.8252-4.2308-6.8305-13.205-8.9173-20.035-4.6864-6.8305 4.2308-8.9187 13.159-4.6876 19.989 2.0295 3.2766 5.2639 5.6228 9.0159 6.5046 0.93717 0.22026 0.76253 1.7709-0.34575 1.5105z" color="#000000" style="text-decoration-line:none;text-indent:0;text-transform:none"/>
 </g>
</svg>
