<?xml version="1.0" encoding="UTF-8"?>
<svg width="37.629" height="35.315" version="1.1" xmlns="http://www.w3.org/2000/svg" xmlns:cc="http://creativecommons.org/ns#" xmlns:dc="http://purl.org/dc/elements/1.1/" xmlns:rdf="http://www.w3.org/1999/02/22-rdf-syntax-ns#">
 <metadata>
  <rdf:RDF>
   <cc:Work rdf:about="">
    <dc:format>image/svg+xml</dc:format>
    <dc:type rdf:resource="http://purl.org/dc/dcmitype/StillImage"/>
    <dc:title/>
   </cc:Work>
  </rdf:RDF>
 </metadata>
 <g transform="translate(-280.53 -942.18)">
  <path d="m281.29 955.44c-1.015 3.3661-1.0546 7.0182 0.1463 10.578 2.8613 8.4814 12.238 13.602 20.856 10.627 7.6065-2.626 12.195-11.087 9.4456-18.83-2.3903-6.7314-9.9366-10.791-16.805-8.2642-5.8561 2.1542-9.357 8.7956-7.0497 14.789 1.9175 4.9806 7.6464 7.9622 12.763 5.8683 4.1047-1.6798 6.5448-6.5078 4.6538-10.747-1.4404-3.2286-5.3735-5.1481-8.7301-3.4392-1.1766 0.59905-2.1139 1.6397-2.5756 2.8583-0.46164 1.2186-0.44628 2.6586 0.34198 3.8884 0.47729 0.74471 1.2635 1.2883 2.1442 1.5326 0.88071 0.2443 1.9697 0.10794 2.7054-0.69444 0.4474-0.48793 0.53493-1.0352 0.47666-1.6465-0.0291-0.30561-0.10755-0.64468-0.425-0.93001-0.31745-0.28532-0.83863-0.37029-1.2427-0.26201l0.39125 1.4532c0.0786-0.021-0.072-1e-3 -0.15666-0.0775-0.0846-0.0761-0.0644-0.12482-0.0573-0.0508 0.0141 0.14794-0.15236 0.56262-0.1 0.50547-0.33473 0.36506-0.72139 0.41456-1.2102 0.27895-0.48884-0.1356-0.98825-0.54308-1.2397-0.9354-0.5153-0.80399-0.53059-1.6843-0.20671-2.5393 0.32388-0.85494 1.0076-1.6454 1.8306-2.0644 2.5126-1.2792 5.5626 0.24364 6.6798 2.7479 1.5178 3.4022-0.49621 7.3451-3.8631 8.723-4.2855 1.7538-9.1607-0.78756-10.79-5.0203-1.9887-5.1656 1.0679-10.948 6.1686-12.825 6.0438-2.2233 12.763 1.3888 14.883 7.3589 2.4576 6.921-1.6668 14.556-8.5072 16.917-7.7974 2.6919-16.341-1.9772-18.943-9.6886-2.926-8.6732 2.254-18.136 10.837-20.977 9.5488-3.1602 19.932 2.5303 23.011 11.985l1.4379-0.46634c-3.3314-10.231-14.548-16.388-24.915-12.957-5.8476 1.9353-10.263 6.6931-11.955 12.303z" color="#000000" fill="#357491" style="text-decoration-line:none;text-indent:0;text-transform:none"/>
 </g>
</svg>
