<?xml version="1.0" encoding="UTF-8"?>
<svg width="45.958" height="44.4" version="1.1" xmlns="http://www.w3.org/2000/svg" xmlns:cc="http://creativecommons.org/ns#" xmlns:dc="http://purl.org/dc/elements/1.1/" xmlns:rdf="http://www.w3.org/1999/02/22-rdf-syntax-ns#">
 <metadata>
  <rdf:RDF>
   <cc:Work rdf:about="">
    <dc:format>image/svg+xml</dc:format>
    <dc:type rdf:resource="http://purl.org/dc/dcmitype/StillImage"/>
    <dc:title/>
   </cc:Work>
  </rdf:RDF>
 </metadata>
 <g transform="translate(-93.137 -678.64)" fill="#357491">
  <path d="m106.08 707.79c0.0425-0.085 0.0613-0.175 0.065-0.265m9.1875 0.265c0.0425-0.085 0.0625-0.17375 0.0663-0.26375"/>
  <path d="m108.8 705.65h22.042c0.1475 0 0.3 0 0.4425 0.015v-0.015c3.6 0 6.53-2.93 6.53-6.53s-2.93-6.5288-6.53-6.5288c-0.50875 0-1.04 0.0662-1.5738 0.19875-0.175 0.0437-0.36 0.0125-0.51-0.0875s-0.25125-0.2575-0.2775-0.435c-0.73-4.6475-4.6725-8.0188-9.375-8.0188-5.2388 0-9.5025 4.2625-9.5025 9.5012 0 0.25875 0.0188 0.5125 0.0387 0.76375 0.0175 0.19-0.0538 0.37875-0.19 0.5125-0.13625 0.1325-0.3275 0.1975-0.51625 0.17875-0.19-0.0212-0.38375-0.0337-0.57875-0.0337-2.8875 0-5.2375 2.35-5.2375 5.24 0 2.8888 2.35 5.2388 5.2375 5.2388m-0.0337-11.761v-0.13875c0-5.945 4.8362-10.784 10.782-10.784 5.1125 0 9.4338 3.5125 10.518 8.4425 0.4125-0.0662 0.81875-0.10125 1.2188-0.10125 4.3088 0 7.8112 3.505 7.8112 7.8125s-3.5025 7.8112-7.8138 7.8112h-22.482c-3.595 0-6.52-2.925-6.52-6.52 0-3.5862 2.905-6.5038 6.4862-6.5225"/>
  <path d="m100.95 686.99c0.4 0 0.8075 0.0325 1.22 0.10125 1.0825-4.9325 5.4038-8.445 10.518-8.445 2.225 0 4.3625 0.67375 6.1788 1.9462 0.29 0.20375 0.36125 0.6025 0.1575 0.89375-0.20375 0.28875-0.6025 0.36-0.8925 0.15625-1.6-1.1212-3.4825-1.7125-5.4438-1.7125-4.7025 0-8.645 3.3712-9.3738 8.0188-0.03 0.17625-0.13125 0.33375-0.28 0.43375-0.15 0.0987-0.33375 0.13125-0.50875 0.0888-0.535-0.1325-1.0638-0.2-1.575-0.2-3.6 0-6.53 2.93-6.53 6.53 0 3.3588 2.515 6.15 5.85 6.4938 0.3525 0.0363 0.60875 0.3525 0.5725 0.70375-0.0338 0.33-0.3125 0.575-0.6375 0.575-0.0213 0-0.0437 0-0.0662-2e-3 -3.9912-0.41125-7-3.7525-7-7.77 0-4.3062 3.5038-7.8112 7.8112-7.8112"/>
  <path d="m106.86 713.05c0 1.1775-0.95875 2.135-2.1362 2.135-1.18 0-2.135-0.9575-2.135-2.135 0-1.1762 0.955-2.135 2.135-2.135 1.1775 0 2.1362 0.95875 2.1362 2.135"/>
  <path d="m102.31 720.91c0 1.1775-0.95875 2.135-2.1362 2.135-1.18 0-2.135-0.9575-2.135-2.135 0-1.1762 0.955-2.135 2.135-2.135 1.1775 0 2.1362 0.95875 2.1362 2.135"/>
  <path d="m118.76 713.05c0 1.1775-0.95875 2.135-2.1362 2.135-1.18 0-2.135-0.9575-2.135-2.135 0-1.1762 0.955-2.135 2.135-2.135 1.1775 0 2.1362 0.95875 2.1362 2.135"/>
  <path d="m114.21 720.91c0 1.1775-0.95875 2.135-2.1362 2.135-1.18 0-2.135-0.9575-2.135-2.135 0-1.1762 0.955-2.135 2.135-2.135 1.1775 0 2.1362 0.95875 2.1362 2.135"/>
  <path d="m130.56 713.05c0 1.1775-0.95875 2.135-2.1362 2.135-1.18 0-2.135-0.9575-2.135-2.135 0-1.1762 0.955-2.135 2.135-2.135 1.1775 0 2.1362 0.95875 2.1362 2.135"/>
  <path d="m126.01 720.91c0 1.1775-0.95875 2.135-2.1362 2.135-1.18 0-2.135-0.9575-2.135-2.135 0-1.1762 0.955-2.135 2.135-2.135 1.1775 0 2.1362 0.95875 2.1362 2.135"/>
 </g>
</svg>
