<?xml version="1.0" encoding="UTF-8"?>
<svg width="45.554" height="41.924" version="1.1" xmlns="http://www.w3.org/2000/svg" xmlns:cc="http://creativecommons.org/ns#" xmlns:dc="http://purl.org/dc/elements/1.1/" xmlns:rdf="http://www.w3.org/1999/02/22-rdf-syntax-ns#">
 <metadata>
  <rdf:RDF>
   <cc:Work rdf:about="">
    <dc:format>image/svg+xml</dc:format>
    <dc:type rdf:resource="http://purl.org/dc/dcmitype/StillImage"/>
    <dc:title/>
   </cc:Work>
  </rdf:RDF>
 </metadata>
 <g transform="translate(-471.92 -588.9)" fill="#357491">
  <path d="m494.25 625.82c-0.27375-0.13875-0.6075-0.0263-0.745 0.2475l-1.9862 3.9475c-0.13625 0.275-0.0275 0.60875 0.24625 0.745 0.0825 0.04 0.1675 0.06 0.25125 0.06 0.20125 0 0.3975-0.11125 0.49625-0.30625l1.9838-3.9488c0.1375-0.2725 0.0288-0.6075-0.24625-0.745"/>
  <path d="m501.33 625.82c-0.27625-0.13875-0.6075-0.0263-0.7475 0.2475l-1.9838 3.9475c-0.13875 0.275-0.0275 0.60875 0.25 0.745 0.0788 0.04 0.1625 0.06 0.2475 0.06 0.20125 0 0.3975-0.11125 0.49375-0.30625l1.9862-3.9488c0.1375-0.2725 0.0263-0.6075-0.24625-0.745"/>
  <path d="m508.4 625.82c-0.27875-0.13875-0.61-0.0263-0.7475 0.2475l-1.9838 3.9475c-0.13875 0.275-0.0275 0.60875 0.24625 0.745 0.0775 0.04 0.16625 0.06 0.24875 0.06 0.20375 0 0.4-0.11125 0.49625-0.30625l1.9862-3.9488c0.1375-0.2725 0.0263-0.6075-0.24625-0.745"/>
  <path d="m491.22 621.97 19.102-1e-3c0.12625 0 0.2575 0 0.3825 0.0125v-0.0112c3.1188 0 5.6575-2.5388 5.6575-5.6588 0-3.1188-2.5388-5.6575-5.6575-5.6575-0.4425 0-0.9 0.0588-1.365 0.1725-0.15 0.0362-0.31125 0.01-0.44-0.0775-0.1325-0.0837-0.2175-0.2225-0.24375-0.375-0.63125-4.0275-4.0462-6.9488-8.1225-6.9488-4.5388 0-8.2338 3.6938-8.2338 8.2338 0 0.2225 0.0162 0.4425 0.0375 0.66 0.0113 0.165-0.05 0.32875-0.16875 0.44375-0.11625 0.11625-0.2825 0.17125-0.4475 0.15625-0.1625-0.0188-0.33-0.03-0.50125-0.03-2.5012 0-4.5388 2.0388-4.5388 4.54 0 2.5038 2.0375 4.5412 4.5388 4.5412m-0.0288-10.191v-0.12c0-5.1525 4.1912-9.345 9.3425-9.345 4.4325 0 8.1775 3.0425 9.1138 7.3162 0.35875-0.0588 0.71125-0.0875 1.0575-0.0875 3.7312 0 6.77 3.0362 6.77 6.7688 0 3.7338-3.0388 6.77-6.77 6.77h-19.485c-3.1138 0-5.6488-2.5362-5.6488-5.6525 0-3.105 2.5188-5.6338 5.62-5.65"/>
  <path d="m480.16 606.17c0-4.9488 4.0275-8.9762 8.9762-8.9762 3.0262 0 5.645 1.2962 7.3125 3.8238 0.16875 0.25625 0.0987 0.60125-0.1575 0.76875-0.25625 0.17-0.59875 0.10125-0.77-0.15625-1.4612-2.215-3.7338-3.325-6.385-3.325-4.3362 0-7.8638 3.5275-7.8638 7.865 0 2.6825 1.3475 5.155 3.6038 6.6125 0.25875 0.16625 0.335 0.50875 0.16625 0.7675-0.10625 0.165-0.28125 0.255-0.465 0.255-0.10375 0-0.21-0.0288-0.3-0.0888-2.5788-1.6625-4.1175-4.4825-4.1175-7.5462"/>
  <path d="m489.02 594.45c-0.305 0-0.55625-0.25-0.55625-0.55625v-4.4375c0-0.30625 0.25125-0.55375 0.55625-0.55375 0.3075 0 0.555 0.2475 0.555 0.55375v4.4375c0 0.30625-0.2475 0.55625-0.555 0.55625"/>
  <path d="m482.94 596.17c-0.0913 0.0575-0.19125 0.0838-0.29 0.0838-0.18625 0-0.37-0.0925-0.475-0.2625l-2.335-3.7738c-0.16125-0.26-0.0813-0.6025 0.18-0.76375 0.26125-0.1625 0.6025-0.0812 0.765 0.17875l2.3362 3.7738c0.15875 0.26125 0.08 0.60375-0.18125 0.76375"/>
  <path d="m478.35 600.85c-0.0875 0-0.17875-0.0213-0.26125-0.0662l-3.915-2.095c-0.27125-0.14625-0.3725-0.4825-0.22625-0.7525 0.14375-0.27 0.48-0.37125 0.75125-0.2275l3.9125 2.0962c0.2725 0.145 0.375 0.48125 0.23125 0.7525-0.1025 0.18625-0.29625 0.2925-0.4925 0.2925"/>
  <path d="m472.48 605.4h2e-3l4.4388 0.0125c0.3075 1e-3 0.555 0.25 0.555 0.5575-2e-3 0.30625-0.25 0.55375-0.555 0.55375h-2e-3l-4.4388-0.0137c-0.3075-1e-3 -0.555-0.25125-0.555-0.5575 2e-3 -0.30625 0.25-0.5525 0.555-0.5525"/>
  <path d="m474.23 613.44 3.8962-2.13c0.26875-0.1475 0.60875-0.0487 0.75625 0.22 0.14625 0.27 0.0462 0.6075-0.22 0.755l-3.9 2.1288c-0.0838 0.0475-0.17625 0.0688-0.26625 0.0688-0.19375 0-0.38875-0.10375-0.49-0.28875-0.14375-0.27-0.0463-0.6075 0.22375-0.75375"/>
  <path d="m503.81 598.54-3.8988 2.13c-0.0863 0.0463-0.17625 0.0675-0.26625 0.0675-0.19625 0-0.38625-0.105-0.4875-0.28875-0.14625-0.26875-0.0488-0.6075 0.2225-0.755l3.895-2.1288c0.26875-0.1475 0.60875-0.0488 0.755 0.22 0.1475 0.26875 0.05 0.60625-0.22 0.755"/>
  <path d="m482.13 615.96c0.16375-0.26125 0.50375-0.34 0.765-0.1775 0.25875 0.1625 0.34 0.505 0.17625 0.7675l-2.355 3.765c-0.10375 0.1675-0.2875 0.26125-0.47125 0.26125-0.0975 0-0.20125-0.0288-0.29125-0.085-0.26125-0.1625-0.3425-0.50625-0.18-0.765z"/>
  <path d="m495.91 596.01c-0.1025 0.1675-0.285 0.26-0.47 0.26-0.10125 0-0.20125-0.0263-0.2925-0.0825-0.26-0.165-0.33875-0.5075-0.17875-0.7675l2.3588-3.765c0.16125-0.26 0.50125-0.34 0.765-0.17625 0.25875 0.16125 0.3375 0.505 0.17625 0.765z"/>
 </g>
</svg>
