<svg width="37.313" height="33.629" version="1.1" xmlns="http://www.w3.org/2000/svg">
 <g transform="translate(-480.16 -597.19)" fill="#357491">
  <path d="m494.25 625.82c-0.27375-0.13875-0.6075-0.0263-0.745 0.2475l-1.9862 3.9475c-0.13625 0.275-0.0275 0.60875 0.24625 0.745 0.0825 0.04 0.1675 0.06 0.25125 0.06 0.20125 0 0.3975-0.11125 0.49625-0.30625l1.9838-3.9488c0.1375-0.2725 0.0288-0.6075-0.24625-0.745"/>
  <path d="m501.33 625.82c-0.27625-0.13875-0.6075-0.0263-0.7475 0.2475l-1.9838 3.9475c-0.13875 0.275-0.0275 0.60875 0.25 0.745 0.0788 0.04 0.1625 0.06 0.2475 0.06 0.20125 0 0.3975-0.11125 0.49375-0.30625l1.9862-3.9488c0.1375-0.2725 0.0263-0.6075-0.24625-0.745"/>
  <path d="m508.4 625.82c-0.27875-0.13875-0.61-0.0263-0.7475 0.2475l-1.9838 3.9475c-0.13875 0.275-0.0275 0.60875 0.24625 0.745 0.0775 0.04 0.16625 0.06 0.24875 0.06 0.20375 0 0.4-0.11125 0.49625-0.30625l1.9862-3.9488c0.1375-0.2725 0.0263-0.6075-0.24625-0.745"/>
  <path d="m491.22 621.97 19.102-1e-3c0.12625 0 0.2575 0 0.3825 0.0125v-0.0112c3.1188 0 5.6575-2.5388 5.6575-5.6588 0-3.1188-2.5388-5.6575-5.6575-5.6575-0.4425 0-0.9 0.0588-1.365 0.1725-0.15 0.0362-0.31125 0.01-0.44-0.0775-0.1325-0.0837-0.2175-0.2225-0.24375-0.375-0.63125-4.0275-4.0462-6.9488-8.1225-6.9488-4.5388 0-8.2338 3.6938-8.2338 8.2338 0 0.2225 0.0162 0.4425 0.0375 0.66 0.0113 0.165-0.05 0.32875-0.16875 0.44375-0.11625 0.11625-0.2825 0.17125-0.4475 0.15625-0.1625-0.0188-0.33-0.03-0.50125-0.03-2.5012 0-4.5388 2.0388-4.5388 4.54 0 2.5038 2.0375 4.5412 4.5388 4.5412m-0.0288-10.191v-0.12c0-5.1525 4.1912-9.345 9.3425-9.345 4.4325 0 8.1775 3.0425 9.1138 7.3162 0.35875-0.0588 0.71125-0.0875 1.0575-0.0875 3.7312 0 6.77 3.0362 6.77 6.7688 0 3.7338-3.0388 6.77-6.77 6.77h-19.485c-3.1138 0-5.6488-2.5362-5.6488-5.6525 0-3.105 2.5188-5.6338 5.62-5.65"/>
  <path d="m480.16 606.17c0-4.9488 4.0275-8.9762 8.9762-8.9762 3.0262 0 5.645 1.2962 7.3125 3.8238 0.16875 0.25625 0.0987 0.60125-0.1575 0.76875-0.25625 0.17-0.59875 0.10125-0.77-0.15625-1.4612-2.215-3.7338-3.325-6.385-3.325-4.3362 0-7.8638 3.5275-7.8638 7.865 0 2.6825 1.3475 5.155 3.6038 6.6125 0.25875 0.16625 0.335 0.50875 0.16625 0.7675-0.10625 0.165-0.28125 0.255-0.465 0.255-0.10375 0-0.21-0.0288-0.3-0.0888-2.5788-1.6625-4.1175-4.4825-4.1175-7.5462"/>
 </g>
</svg>
