<?xml version="1.0" encoding="UTF-8"?>
<svg width="46.239" height="41.987" version="1.1" xmlns="http://www.w3.org/2000/svg" xmlns:cc="http://creativecommons.org/ns#" xmlns:dc="http://purl.org/dc/elements/1.1/" xmlns:rdf="http://www.w3.org/1999/02/22-rdf-syntax-ns#">
 <metadata>
  <rdf:RDF>
   <cc:Work rdf:about="">
    <dc:format>image/svg+xml</dc:format>
    <dc:type rdf:resource="http://purl.org/dc/dcmitype/StillImage"/>
    <dc:title/>
   </cc:Work>
  </rdf:RDF>
 </metadata>
 <g transform="translate(-476.03 -769.43)" fill="#357491">
  <path d="m489.08 801.5c-0.31875-0.1575-0.705-0.03-0.865 0.2875l-4.3462 8.6925c-0.15875 0.3175-0.03 0.705 0.28875 0.865 0.0925 0.0462 0.19125 0.0688 0.2875 0.0688 0.2375 0 0.465-0.13125 0.5775-0.35625l4.3462-8.6938c0.15875-0.3175 0.03-0.705-0.28875-0.86375"/>
  <path d="m496.33 801.5c-0.31875-0.1575-0.705-0.03-0.865 0.2875l-4.3462 8.6925c-0.15875 0.3175-0.03 0.705 0.28875 0.865 0.0925 0.0462 0.19 0.0688 0.2875 0.0688 0.23625 0 0.46375-0.13125 0.5775-0.35625l4.345-8.6938c0.16-0.3175 0.0313-0.705-0.2875-0.86375"/>
  <path d="m503.58 801.5c-0.3175-0.1575-0.705-0.03-0.865 0.2875l-4.3462 8.6925c-0.15875 0.3175-0.03 0.705 0.28875 0.865 0.0925 0.0462 0.19 0.0688 0.2875 0.0688 0.23625 0 0.465-0.13125 0.5775-0.35625l4.3462-8.6938c0.15875-0.3175 0.03-0.705-0.28875-0.86375"/>
  <path d="m510.83 801.5c-0.31875-0.1575-0.705-0.03-0.865 0.2875l-4.3462 8.6925c-0.16 0.3175-0.03 0.705 0.28875 0.865 0.0925 0.0462 0.19 0.0688 0.2875 0.0688 0.23625 0 0.46375-0.13125 0.5775-0.35625l4.345-8.6938c0.16-0.3175 0.0313-0.705-0.2875-0.86375"/>
  <path d="m518.08 801.5c-0.31875-0.1575-0.705-0.03-0.865 0.2875l-4.3462 8.6925c-0.15875 0.3175-0.03 0.705 0.28875 0.865 0.0925 0.0462 0.19 0.0688 0.2875 0.0688 0.23625 0 0.465-0.13125 0.5775-0.35625l4.3462-8.6938c0.15875-0.3175 0.03-0.705-0.28875-0.86375"/>
  <path d="m491.79 796.6h22.176c0.1475 0 0.30125 0 0.445 0.0162v-0.0162c3.6225 0 6.5688-2.9462 6.5688-6.57 0-3.6212-2.9462-6.5688-6.5688-6.5688-0.5125 0-1.045 0.0675-1.585 0.2-0.175 0.045-0.36 0.0125-0.5125-0.0875-0.15-0.1-0.25125-0.25875-0.28-0.4375-0.73375-4.675-4.7-8.0688-9.4312-8.0688-5.27 0-9.5588 4.2888-9.5588 9.56 0 0.26 0.0175 0.515 0.0388 0.76875 0.0162 0.19125-0.0538 0.38125-0.1925 0.515-0.1375 0.135-0.32875 0.19875-0.52 0.18-0.19-0.0213-0.38375-0.0337-0.58-0.0337-2.9062 0-5.27 2.365-5.27 5.2712s2.3638 5.2712 5.27 5.2712m-0.035-11.832c-1e-3 -0.0462-1e-3 -0.0925-1e-3 -0.14 0-5.9812 4.8675-10.85 10.849-10.85 5.145 0 9.4925 3.5338 10.581 8.4962 0.415-0.0688 0.825-0.1025 1.2275-0.1025 4.3325 0 7.8588 3.525 7.8588 7.8588s-3.5262 7.8588-7.8625 7.8588h-22.618c-3.6175 0-6.5612-2.9425-6.5612-6.56 0-3.6062 2.925-6.5425 6.5262-6.5612"/>
  <path d="m483.89 777.82c0.4025 0 0.8125 0.0337 1.2262 0.10125 1.09-4.9625 5.4375-8.495 10.581-8.495 2.2412 0 4.39 0.67625 6.2175 1.9588 0.2925 0.20375 0.3625 0.605 0.15875 0.89625-0.205 0.2925-0.60625 0.3625-0.89875 0.15875-1.6088-1.1275-3.5038-1.725-5.4775-1.725-4.73 0-8.6975 3.3938-9.4312 8.0688-0.0275 0.17875-0.12875 0.3375-0.28 0.4375-0.15 0.1-0.335 0.13125-0.51125 0.0888-0.53875-0.1325-1.0712-0.2-1.585-0.2-3.6225 0-6.5688 2.9475-6.5688 6.5688 0 3.3788 2.53 6.1875 5.885 6.5338 0.355 0.0362 0.6125 0.35375 0.57625 0.7075-0.035 0.3325-0.315 0.57875-0.64125 0.57875-0.0225 0-0.045-1e-3 -0.0675-2e-3 -4.015-0.415-7.0438-3.775-7.0438-7.8175 0-4.3338 3.5262-7.8588 7.86-7.8588"/>
 </g>
</svg>
