<?xml version="1.0" encoding="UTF-8"?>
<svg width="49.406" height="37.074" version="1.1" xmlns="http://www.w3.org/2000/svg" xmlns:cc="http://creativecommons.org/ns#" xmlns:dc="http://purl.org/dc/elements/1.1/" xmlns:rdf="http://www.w3.org/1999/02/22-rdf-syntax-ns#">
 <metadata>
  <rdf:RDF>
   <cc:Work rdf:about="">
    <dc:format>image/svg+xml</dc:format>
    <dc:type rdf:resource="http://purl.org/dc/dcmitype/StillImage"/>
    <dc:title/>
   </cc:Work>
  </rdf:RDF>
 </metadata>
 <g transform="translate(-184.9 -591.32)" fill="#357491">
  <path d="m205.83 627.19 20.716-1e-3c0.1375 0 0.28125 0 0.415 0.015v-0.0137c3.3838 0 6.1362-2.7525 6.1362-6.1362s-2.7525-6.1362-6.1362-6.1362c-0.4775 0-0.975 0.0613-1.48 0.18625-0.16375 0.04-0.3375 0.0112-0.47875-0.0838-0.14-0.0937-0.235-0.24125-0.26125-0.40875-0.685-4.3662-4.3912-7.5362-8.81-7.5362-4.9238 0-8.93 4.0062-8.93 8.9312 0 0.24125 0.0175 0.48 0.0362 0.7175 0.015 0.17875-0.05 0.355-0.17875 0.48s-0.30625 0.185-0.485 0.16875c-0.17875-0.0188-0.35875-0.0313-0.54375-0.0313-2.7138 0-4.9225 2.21-4.9225 4.9238 0 2.715 2.2088 4.925 4.9225 4.925m-0.0325-11.054c0-0.0425-1e-3 -0.0863-1e-3 -0.13 0-5.5888 4.5462-10.136 10.135-10.136 4.805 0 8.8662 3.3025 9.8838 7.9362 0.38875-0.0637 0.77125-0.0937 1.1462-0.0937 4.0488 0 7.3412 3.2925 7.3412 7.3412 0 4.0475-3.2925 7.3412-7.3412 7.3412h-6e-3c-0.09-1e-3 -2.4062-1e-3 -5.4725-1e-3l-15.652 1e-3c-3.3788 0-6.1275-2.75-6.1275-6.13 0-3.3688 2.73-6.11 6.095-6.1288"/>
  <path d="m193.84 610.06c0-5.3675 4.3675-9.7338 9.7338-9.7338 3.2825 0 6.1238 1.405 7.9325 4.1462 0.1825 0.27875 0.10625 0.6525-0.17125 0.835-0.27875 0.185-0.6525 0.1075-0.835-0.17-1.585-2.4025-4.0512-3.6062-6.9262-3.6062-4.7025 0-8.5288 3.825-8.5288 8.5288 0 2.9112 1.4625 5.5938 3.9112 7.1725 0.27875 0.18125 0.36 0.55375 0.17875 0.8325-0.11375 0.18-0.3075 0.27625-0.505 0.27625-0.1125 0-0.22625-0.03-0.3275-0.0962-2.7938-1.8025-4.4625-4.8625-4.4625-8.185"/>
  <path d="m203.44 597.34c-0.33375 0-0.6025-0.26875-0.6025-0.60125v-4.8138c0-0.3325 0.26875-0.60125 0.6025-0.60125 0.3325 0 0.6025 0.26875 0.6025 0.60125v4.8138c0 0.3325-0.27 0.60125-0.6025 0.60125"/>
  <path d="m196.85 599.22c-0.0987 0.0613-0.2075 0.09-0.31625 0.09-0.20125 0-0.39875-0.10125-0.51375-0.285l-2.5325-4.0925c-0.17375-0.2825-0.0875-0.65375 0.195-0.83 0.28375-0.17375 0.65375-0.0875 0.83 0.19625l2.5325 4.0912c0.17625 0.28375 0.0887 0.65375-0.195 0.83"/>
  <path d="m191.87 604.29c-0.095 0-0.1925-0.0238-0.28375-0.0713l-4.245-2.2738c-0.29375-0.15625-0.405-0.52125-0.2475-0.815 0.15625-0.29375 0.52125-0.405 0.81625-0.2475l4.245 2.2738c0.29375 0.1575 0.405 0.5225 0.24625 0.815-0.1075 0.20375-0.31625 0.31875-0.53125 0.31875"/>
  <path d="m185.5 609.23h2e-3l4.815 0.0138c0.33375 0 0.6025 0.27125 0.60125 0.60375-1e-3 0.3325-0.27 0.60125-0.6025 0.60125h-1e-3l-4.815-0.0137c-0.33375-1e-3 -0.6025-0.2725-0.6025-0.60625 1e-3 -0.33125 0.27-0.59875 0.6025-0.59875"/>
  <path d="m187.4 617.94 4.2275-2.3112c0.2925-0.15875 0.65875-0.0525 0.8175 0.24125 0.16 0.29125 0.0525 0.6575-0.24 0.81625l-4.2275 2.3112c-0.0912 0.05-0.19 0.0725-0.28875 0.0725-0.21125 0-0.41875-0.1125-0.52875-0.31375-0.15875-0.29125-0.0512-0.6575 0.24-0.81625"/>
  <path d="m219.49 601.78-4.2275 2.31c-0.0925 0.0513-0.19125 0.0738-0.28875 0.0738-0.2125 0-0.42-0.11375-0.52875-0.31375-0.16-0.29125-0.0525-0.6575 0.24-0.81625l4.2275-2.3112c0.2925-0.16 0.6575-0.0525 0.8175 0.24 0.15875 0.29125 0.0525 0.6575-0.24 0.8175"/>
  <path d="m195.97 620.68c0.1775-0.2825 0.5475-0.36875 0.83125-0.19 0.28125 0.175 0.36625 0.5475 0.19 0.82875l-2.5538 4.085c-0.11375 0.1825-0.31125 0.28375-0.51125 0.28375-0.11 0-0.22-0.0313-0.31875-0.0913-0.2825-0.1775-0.36875-0.55-0.19125-0.83125l2.5538-4.085z"/>
  <path d="m210.92 599.04c-0.11375 0.1825-0.31125 0.28375-0.51125 0.28375-0.10875 0-0.21875-0.03-0.31875-0.0925-0.2825-0.17625-0.3675-0.5475-0.19125-0.83125l2.555-4.0838c0.17625-0.2825 0.5475-0.36875 0.83-0.19125 0.28125 0.17625 0.3675 0.5475 0.19 0.83z"/>
 </g>
</svg>
