<?xml version="1.0" encoding="UTF-8"?>
<svg width="46.216" height="46.304" version="1.1" xmlns="http://www.w3.org/2000/svg" xmlns:cc="http://creativecommons.org/ns#" xmlns:dc="http://purl.org/dc/elements/1.1/" xmlns:rdf="http://www.w3.org/1999/02/22-rdf-syntax-ns#">
 <metadata>
  <rdf:RDF>
   <cc:Work rdf:about="">
    <dc:format>image/svg+xml</dc:format>
    <dc:type rdf:resource="http://purl.org/dc/dcmitype/StillImage"/>
    <dc:title/>
   </cc:Work>
  </rdf:RDF>
 </metadata>
 <g transform="translate(-476.12 -852.34)" fill="#357491">
  <path d="m491.87 879.5h22.165c0.1475 0 0.30125 0 0.445 0.015v-0.015c3.62 0 6.5662-2.945 6.5662-6.565 0-3.6212-2.9462-6.5662-6.5662-6.5662-0.51375 0-1.0475 0.0675-1.5838 0.2-0.175 0.0437-0.36125 0.0113-0.5125-0.0888-0.15-0.1-0.2525-0.25875-0.28-0.43625-0.7325-4.6738-4.6988-8.065-9.4262-8.065-5.2688 0-9.5562 4.2862-9.5562 9.5562 0 0.25875 0.02 0.515 0.0413 0.7675 0.0137 0.1925-0.0563 0.38125-0.19375 0.515-0.13625 0.13375-0.32875 0.19875-0.5175 0.17875-0.19125-0.02-0.385-0.0325-0.58125-0.0325-2.905 0-5.2688 2.3638-5.2688 5.2675 0 2.905 2.3638 5.2688 5.2688 5.2688m-0.0362-11.825c0-0.0475-1e-3 -0.0937-1e-3 -0.14 0-5.98 4.8662-10.845 10.845-10.845 5.1412 0 9.4875 3.5312 10.576 8.4912 0.4125-0.0675 0.82375-0.1025 1.2262-0.1025 4.3312 0 7.855 3.525 7.855 7.8562s-3.5238 7.855-7.8588 7.855h-22.606c-3.6162 0-6.5575-2.9425-6.5575-6.5588 0-3.6038 2.9212-6.5375 6.5212-6.5562"/>
  <path d="m483.98 860.73c0.40375 0 0.81375 0.0337 1.2262 0.10125 1.09-4.9588 5.435-8.4912 10.576-8.4912 2.2388 0 4.3875 0.6775 6.215 1.9575 0.29 0.205 0.36125 0.60625 0.1575 0.8975-0.205 0.2925-0.60625 0.3625-0.89875 0.15875-1.6088-1.1288-3.5012-1.725-5.4738-1.725-4.7275 0-8.6938 3.3925-9.4262 8.065-0.0288 0.18-0.13125 0.3375-0.28125 0.4375-0.14875 0.1-0.33375 0.1325-0.51125 0.0888-0.5375-0.13375-1.0688-0.20125-1.5838-0.20125-3.62 0-6.5662 2.9462-6.5662 6.5662 0 3.3762 2.53 6.1838 5.8838 6.53 0.35375 0.0375 0.61125 0.355 0.575 0.70875-0.035 0.33125-0.315 0.57875-0.64125 0.57875-0.0212 0-0.045-1e-3 -0.0662-4e-3 -4.0138-0.415-7.04-3.7738-7.04-7.8138 0-4.3312 3.5238-7.855 7.855-7.855"/>
  <path d="m491.41 885.95c-0.36681 8.8e-4 -0.66291 0.29698-0.66379 0.66379v1.0218h-1.0218c-0.36593 0-0.66292 0.29699-0.6638 0.6638 8.8e-4 0.36681 0.29787 0.66379 0.6638 0.66379h1.0218l-8.9e-4 1.0209c0 0.36593 0.29699 0.66291 0.6638 0.6638 0.18385 0 0.3509-0.0751 0.47022-0.19446 0.12021-0.12021 0.19446-0.28638 0.19357-0.46934l8.9e-4 -1.0209 1.0209-8.8e-4c0.18385 0 0.34914-0.0734 0.46935-0.19357 0.1202-0.12021 0.19445-0.28638 0.19445-0.47023-8.8e-4 -0.36681-0.29787-0.66379-0.6638-0.66379l-1.0209 8.8e-4v-1.0218c0-0.36593-0.29699-0.66291-0.6638-0.66379"/>
  <path d="m503.41 885.95c-0.36681 8.8e-4 -0.66291 0.29698-0.66379 0.66379v1.0218h-1.0218c-0.36593 0-0.66292 0.29699-0.6638 0.6638 8.8e-4 0.36681 0.29787 0.66379 0.6638 0.66379h1.0218l-8.9e-4 1.0209c0 0.36593 0.29699 0.66291 0.6638 0.6638 0.18385 0 0.3509-0.0751 0.47022-0.19446 0.12021-0.12021 0.19446-0.28638 0.19357-0.46934l8.9e-4 -1.0209 1.0209-8.8e-4c0.18385 0 0.34914-0.0734 0.46935-0.19357 0.1202-0.12021 0.19445-0.28638 0.19445-0.47023-8.8e-4 -0.36681-0.29787-0.66379-0.6638-0.66379l-1.0209 8.8e-4v-1.0218c0-0.36593-0.29699-0.66291-0.6638-0.66379"/>
  <path d="m515.41 885.95c-0.36681 8.8e-4 -0.66291 0.29698-0.66379 0.66379v1.0218h-1.0218c-0.36593 0-0.66292 0.29699-0.6638 0.6638 8.8e-4 0.36681 0.29787 0.66379 0.6638 0.66379h1.0218l-8.9e-4 1.0209c0 0.36593 0.29699 0.66291 0.6638 0.6638 0.18385 0 0.3509-0.0751 0.47022-0.19446 0.12021-0.12021 0.19446-0.28638 0.19357-0.46934l8.9e-4 -1.0209 1.0209-8.8e-4c0.18385 0 0.34914-0.0734 0.46935-0.19357 0.1202-0.12021 0.19445-0.28638 0.19445-0.47023-8.8e-4 -0.36681-0.29787-0.66379-0.6638-0.66379l-1.0209 8.8e-4v-1.0218c0-0.36593-0.29699-0.66291-0.6638-0.66379"/>
  <path d="m485.41 893.95c-0.36681 8.8e-4 -0.66291 0.29698-0.66379 0.66379v1.0218h-1.0218c-0.36593 0-0.66292 0.29699-0.6638 0.6638 8.8e-4 0.36681 0.29787 0.66379 0.6638 0.66379h1.0218l-8.9e-4 1.0209c0 0.36593 0.29699 0.66291 0.6638 0.6638 0.18385 0 0.3509-0.0751 0.47022-0.19446 0.12021-0.12021 0.19446-0.28638 0.19357-0.46934l8.9e-4 -1.0209 1.0209-8.8e-4c0.18385 0 0.34914-0.0734 0.46935-0.19357 0.1202-0.12021 0.19445-0.28638 0.19445-0.47023-8.8e-4 -0.36681-0.29787-0.66379-0.6638-0.66379l-1.0209 8.8e-4v-1.0218c0-0.36593-0.29699-0.66291-0.6638-0.66379"/>
  <path d="m497.41 893.95c-0.36681 8.8e-4 -0.66291 0.29698-0.66379 0.66379v1.0218h-1.0218c-0.36593 0-0.66292 0.29699-0.6638 0.6638 8.8e-4 0.36681 0.29787 0.66379 0.6638 0.66379h1.0218l-8.9e-4 1.0209c0 0.36593 0.29699 0.66291 0.6638 0.6638 0.18385 0 0.3509-0.0751 0.47022-0.19446 0.12021-0.12021 0.19446-0.28638 0.19357-0.46934l8.9e-4 -1.0209 1.0209-8.8e-4c0.18385 0 0.34914-0.0734 0.46935-0.19357 0.1202-0.12021 0.19445-0.28638 0.19445-0.47023-8.8e-4 -0.36681-0.29787-0.66379-0.6638-0.66379l-1.0209 8.8e-4v-1.0218c0-0.36593-0.29699-0.66291-0.6638-0.66379"/>
  <path d="m509.41 893.95c-0.36681 8.8e-4 -0.66291 0.29698-0.66379 0.66379v1.0218h-1.0218c-0.36593 0-0.66292 0.29699-0.6638 0.6638 8.8e-4 0.36681 0.29787 0.66379 0.6638 0.66379h1.0218l-8.9e-4 1.0209c0 0.36593 0.29699 0.66291 0.6638 0.6638 0.18385 0 0.3509-0.0751 0.47022-0.19446 0.12021-0.12021 0.19446-0.28638 0.19357-0.46934l8.9e-4 -1.0209 1.0209-8.8e-4c0.18385 0 0.34914-0.0734 0.46935-0.19357 0.1202-0.12021 0.19445-0.28638 0.19445-0.47023-8.8e-4 -0.36681-0.29787-0.66379-0.6638-0.66379l-1.0209 8.8e-4v-1.0218c0-0.36593-0.29699-0.66291-0.6638-0.66379"/>
 </g>
</svg>
