<?xml version="1.0" encoding="UTF-8"?>
<svg width="44.323" height="43.156" version="1.1" xmlns="http://www.w3.org/2000/svg" xmlns:cc="http://creativecommons.org/ns#" xmlns:dc="http://purl.org/dc/elements/1.1/" xmlns:rdf="http://www.w3.org/1999/02/22-rdf-syntax-ns#">
 <metadata>
  <rdf:RDF>
   <cc:Work rdf:about="">
    <dc:format>image/svg+xml</dc:format>
    <dc:type rdf:resource="http://purl.org/dc/dcmitype/StillImage"/>
    <dc:title/>
   </cc:Work>
  </rdf:RDF>
 </metadata>
 <g transform="translate(-376.73 -587.67)" fill="#357491">
  <path d="m395.51 619.84h18.582c0.125 0 0.25375 0 0.37375 0.0138v-0.0138c3.0375 0 5.505-2.47 5.505-5.505s-2.4675-5.5062-5.505-5.5062c-0.4275 0-0.875 0.0575-1.3275 0.16875-0.1475 0.035-0.30375 9e-3 -0.42875-0.075-0.125-0.0825-0.21-0.21625-0.23625-0.36625-0.61375-3.9162-3.9375-6.76-7.9012-6.76-4.4188 0-8.0125 3.5938-8.0125 8.0112 0 0.2175 0.0163 0.43 0.0313 0.6425 0.0163 0.16125-0.0437 0.32-0.16125 0.4325-0.1125 0.1125-0.2725 0.165-0.43375 0.15125-0.16-0.0187-0.32-0.0275-0.48625-0.0275-2.4362 0-4.4188 1.9812-4.4188 4.4162 0 2.4362 1.9825 4.4175 4.4188 4.4175m-0.03-9.915v-0.1175c0-5.0138 4.0788-9.0925 9.0925-9.0925 4.31 0 7.9525 2.9625 8.8662 7.1188 0.34875-0.0563 0.6925-0.0838 1.0275-0.0838 3.6312 0 6.5862 2.9538 6.5862 6.585 0 3.63-2.955 6.585-6.5862 6.585h-4e-3l-18.953 1e-4c-3.0325 0-5.4975-2.4662-5.4975-5.4975 0-3.0212 2.45-5.4812 5.4675-5.4975"/>
  <path d="m384.75 604.47c0-4.815 3.9162-8.7325 8.73-8.7325 2.945 0 5.4938 1.26 7.1188 3.7212 0.1625 0.2475 0.095 0.58375-0.155 0.7475-0.25 0.16625-0.5825 0.0975-0.74875-0.1525-1.4238-2.155-3.635-3.235-6.215-3.235-4.2162 0-7.65 3.4325-7.65 7.6512 0 2.6112 1.3125 5.0175 3.5088 6.4338 0.24875 0.1625 0.32375 0.49625 0.16125 0.7475-0.10125 0.16125-0.2775 0.24875-0.455 0.24875-0.1 0-0.20375-0.0288-0.29375-0.0863-2.5038-1.6188-4.0012-4.3638-4.0012-7.3438"/>
  <path d="m393.36 593.07c-0.3 0-0.54125-0.2425-0.54125-0.54125v-4.3175c0-0.29875 0.24125-0.54 0.54125-0.54 0.2975 0 0.53875 0.24125 0.53875 0.54v4.3175c0 0.29875-0.24125 0.54125-0.53875 0.54125"/>
  <path d="m387.45 594.75c-0.0875 0.0537-0.185 0.0812-0.285 0.0812-0.18 0-0.35625-0.09-0.46-0.25625l-2.2712-3.67c-0.155-0.25375-0.0775-0.5875 0.17625-0.74375 0.25625-0.1575 0.58625-0.0787 0.745 0.17375l2.2688 3.6712c0.16125 0.25375 0.0825 0.5875-0.17375 0.74375"/>
  <path d="m382.98 599.29c-0.085 0-0.17375-0.0213-0.25375-0.0637l-3.8075-2.04c-0.265-0.14-0.365-0.4675-0.22125-0.73125 0.13875-0.2625 0.46625-0.36125 0.73-0.22125l3.8088 2.04c0.26375 0.14 0.365 0.4675 0.2225 0.73-0.0975 0.1825-0.285 0.28625-0.47875 0.28625"/>
  <path d="m377.27 603.73h4e-3l4.3175 0.0125c0.2975 0 0.54375 0.24375 0.54125 0.54125-3e-3 0.29875-0.24375 0.54-0.54125 0.54h-3e-3l-4.3212-0.0137c-0.29625 0-0.5375-0.24375-0.5375-0.54125 0-0.29875 0.24375-0.53875 0.54-0.53875"/>
  <path d="m378.97 611.54 3.795-2.0725c0.26125-0.1425 0.59-0.0463 0.7325 0.215 0.14125 0.2625 0.0462 0.59125-0.215 0.73375l-3.795 2.0738c-0.08 0.0438-0.16875 0.065-0.25625 0.065-0.19125 0-0.375-0.10125-0.47625-0.28125-0.1425-0.26125-0.0437-0.59125 0.215-0.73375"/>
  <path d="m407.75 597.04-3.7925 2.0738c-0.0838 0.045-0.17125 0.0662-0.25875 0.0662-0.19 0-0.375-0.10125-0.47375-0.2825-0.14125-0.26125-0.0462-0.59 0.215-0.7325l3.7925-2.0712c0.26125-0.14625 0.59-0.0487 0.7325 0.215 0.1425 0.26125 0.0487 0.58875-0.215 0.73125"/>
  <path d="m386.66 614c0.1575-0.25375 0.49125-0.33125 0.745-0.1725 0.25125 0.15875 0.3275 0.49125 0.1675 0.745l-2.29 3.665c-0.1 0.16375-0.27875 0.25375-0.4575 0.25375-0.0975 0-0.19625-0.0275-0.28375-0.0825-0.25375-0.15875-0.33125-0.4925-0.17375-0.745z"/>
  <path d="m400.07 594.59c-0.1025 0.1625-0.27875 0.25375-0.4575 0.25375-0.0975 0-0.19625-0.0262-0.2875-0.0825-0.25375-0.15875-0.3275-0.4925-0.17-0.745l2.2925-3.665c0.1575-0.2525 0.49125-0.33 0.74375-0.17125 0.25125 0.1575 0.32875 0.49125 0.17125 0.74375z"/>
  <path d="m409.47 625.82c-0.27375-0.13875-0.6075-0.0263-0.7475 0.2475l-1.9838 3.9475c-0.13625 0.275-0.025 0.60875 0.24625 0.745 0.08 0.04 0.16625 0.06 0.25125 0.06 0.20375 0 0.3975-0.11125 0.49625-0.30625l1.9825-3.9488c0.14125-0.2725 0.03-0.6075-0.245-0.745"/>
  <path d="m399.47 625.82c-0.27375-0.13875-0.6075-0.0263-0.7475 0.2475l-1.9838 3.9475c-0.13625 0.275-0.025 0.60875 0.24625 0.745 0.08 0.04 0.16625 0.06 0.25125 0.06 0.20375 0 0.3975-0.11125 0.49625-0.30625l1.9825-3.9488c0.14125-0.2725 0.03-0.6075-0.245-0.745"/>
 </g>
</svg>
