<?xml version="1.0" encoding="UTF-8"?>
<svg width="43.213" height="43.183" version="1.1" xmlns="http://www.w3.org/2000/svg" xmlns:cc="http://creativecommons.org/ns#" xmlns:dc="http://purl.org/dc/elements/1.1/" xmlns:rdf="http://www.w3.org/1999/02/22-rdf-syntax-ns#">
 <metadata>
  <rdf:RDF>
   <cc:Work rdf:about="">
    <dc:format>image/svg+xml</dc:format>
    <dc:type rdf:resource="http://purl.org/dc/dcmitype/StillImage"/>
    <dc:title/>
   </cc:Work>
  </rdf:RDF>
 </metadata>
 <g transform="translate(-94.591 -588.27)" fill="#357491">
  <path d="m116.2 619.88c-5.4788 0-9.935-4.4575-9.935-9.9362 0-5.4775 4.4562-9.935 9.935-9.935s9.935 4.4575 9.935 9.935c0 5.4788-4.4562 9.9362-9.935 9.9362m0-21.275c-6.2525 0-11.339 5.0862-11.339 11.339s5.0862 11.34 11.339 11.34c6.2512 0 11.339-5.0875 11.339-11.34s-5.0875-11.339-11.339-11.339"/>
  <path d="m116.2 595.28c0.3875 0 0.70125-0.31375 0.70125-0.7025v-5.605c0-0.3875-0.31375-0.70125-0.70125-0.70125s-0.7025 0.31375-0.7025 0.70125v5.605c0 0.38875 0.315 0.7025 0.7025 0.7025"/>
  <path d="m116.2 624.44c-0.3875 0-0.7025 0.31375-0.7025 0.7025v5.605c0 0.3875 0.315 0.70125 0.7025 0.70125s0.70125-0.31375 0.70125-0.70125v-5.605c0-0.38875-0.31375-0.7025-0.70125-0.7025"/>
  <path d="m123.88 597.46c0.115 0.0713 0.2425 0.105 0.36875 0.105 0.235 0 0.465-0.1175 0.5975-0.3325l2.9512-4.7662c0.2025-0.33 0.10125-0.76125-0.2275-0.96625-0.33-0.20375-0.7625-0.1025-0.96625 0.2275l-2.9512 4.7675c-0.20375 0.32875-0.1025 0.76125 0.2275 0.965"/>
  <path d="m108.53 622.26c-0.32875-0.20375-0.7625-0.1025-0.96625 0.2275l-2.9512 4.7662c-0.20375 0.33-0.10125 0.76125 0.2275 0.96625 0.11625 0.0712 0.2425 0.105 0.36875 0.105 0.235 0 0.465-0.1175 0.5975-0.3325l2.9512-4.7675c0.20375-0.32875 0.10125-0.76125-0.2275-0.965"/>
  <path d="m129.68 603.37c0.1125 0 0.225-0.0262 0.33125-0.0825l4.945-2.6488c0.3425-0.1825 0.47125-0.6075 0.2875-0.95-0.1825-0.34-0.6075-0.47-0.95-0.28625l-4.945 2.6475c-0.3425 0.1825-0.47125 0.60875-0.2875 0.95 0.12625 0.23625 0.36875 0.37 0.61875 0.37"/>
  <path d="m102.38 616.48-4.9475 2.6475c-0.34125 0.18375-0.47 0.6075-0.2875 0.95 0.1275 0.23625 0.36875 0.37125 0.62 0.37125 0.11125 0 0.22375-0.0275 0.33-0.0838l4.9462-2.6475c0.3425-0.18375 0.47125-0.60875 0.28875-0.95125-0.18375-0.34-0.6075-0.46875-0.95-0.28625"/>
  <path d="m137.1 609.12h-2e-3l-5.61 0.0162c-0.3875 1e-3 -0.70125 0.31625-0.7 0.70375 1e-3 0.38625 0.315 0.7 0.70125 0.7h2e-3l5.61-0.0162c0.3875-1e-3 0.70125-0.31625 0.7-0.70375-1e-3 -0.3875-0.315-0.7-0.70125-0.7"/>
  <path d="m101.6 609.92c-1e-3 -0.3875-0.315-0.7-0.7025-0.7h-1e-3l-5.61 0.0163c-0.38875 1e-3 -0.70125 0.31625-0.7 0.70375 1e-3 0.3875 0.315 0.7 0.70125 0.7h2e-3l5.61-0.0163c0.3875-1e-3 0.7-0.31625 0.7-0.70375"/>
  <path d="m134.89 619.27-4.925-2.6912c-0.34-0.18625-0.76625-0.0613-0.9525 0.27875-0.185 0.34-0.06 0.7675 0.28 0.9525l4.9238 2.69c0.1075 0.06 0.2225 0.0875 0.33625 0.0875 0.2475 0 0.49-0.1325 0.61625-0.365 0.18625-0.34125 0.06-0.7675-0.27875-0.9525"/>
  <path d="m103.11 601.9-4.9238-2.6912c-0.34-0.18625-0.7675-0.0613-0.9525 0.27875-0.18625 0.34-0.0613 0.7675 0.27875 0.9525l4.9238 2.6912c0.1075 0.0588 0.2225 0.0863 0.33625 0.0863 0.24875 0 0.49-0.1325 0.6175-0.365 0.185-0.34 0.06-0.7675-0.28-0.9525"/>
  <path d="m124.91 622.46c-0.205-0.3275-0.6375-0.42875-0.96625-0.2225-0.32875 0.205-0.42875 0.63875-0.2225 0.96625l2.9738 4.7588c0.1325 0.2125 0.36125 0.32875 0.595 0.32875 0.1275 0 0.255-0.0337 0.37125-0.10625 0.32875-0.205 0.42875-0.63875 0.22375-0.9675z"/>
  <path d="m107.5 597.26c0.1325 0.2125 0.3625 0.33 0.595 0.33 0.1275 0 0.25625-0.035 0.37125-0.10625 0.32875-0.20625 0.42875-0.64 0.22375-0.9675l-2.975-4.7588c-0.205-0.3275-0.6375-0.42875-0.9675-0.2225-0.32875 0.205-0.4275 0.63875-0.2225 0.96625z"/>
 </g>
</svg>
